<mxfile host="Electron" agent="Mozilla/5.0 (Windows NT 10.0; Win64; x64) AppleWebKit/537.36 (KHTML, like Gecko) draw.io/24.7.17 Chrome/128.0.6613.36 Electron/32.0.1 Safari/537.36" version="24.7.17">
  <diagram id="C5RBs43oDa-KdzZeNtuy" name="Page-1">
    <mxGraphModel dx="1169" dy="1347" grid="1" gridSize="10" guides="1" tooltips="1" connect="1" arrows="1" fold="1" page="1" pageScale="1" pageWidth="827" pageHeight="1169" math="0" shadow="0">
      <root>
        <mxCell id="WIyWlLk6GJQsqaUBKTNV-0" />
        <mxCell id="WIyWlLk6GJQsqaUBKTNV-1" parent="WIyWlLk6GJQsqaUBKTNV-0" />
        <mxCell id="7GwHJ8WHLpkf8yxdElzS-14" value="" style="html=1;dropTarget=0;whiteSpace=wrap;" parent="WIyWlLk6GJQsqaUBKTNV-1" vertex="1">
          <mxGeometry x="180" y="430" width="1180" height="200" as="geometry" />
        </mxCell>
        <mxCell id="7GwHJ8WHLpkf8yxdElzS-15" value="" style="shape=module;jettyWidth=8;jettyHeight=4;" parent="7GwHJ8WHLpkf8yxdElzS-14" vertex="1">
          <mxGeometry x="1" width="20" height="20" relative="1" as="geometry">
            <mxPoint x="-27" y="7" as="offset" />
          </mxGeometry>
        </mxCell>
        <mxCell id="afQVLRiH2oxlr41Mcdnj-31" value="&lt;font style=&quot;font-size: 24px;&quot;&gt;Шахмуханбетов Ханкелді&lt;/font&gt;&lt;div&gt;&lt;font size=&quot;3&quot;&gt;ДЗ 11&lt;/font&gt;&lt;/div&gt;&lt;div&gt;&lt;font size=&quot;3&quot;&gt;Диаграмма класса&lt;/font&gt;&lt;/div&gt;" style="text;html=1;align=center;verticalAlign=middle;whiteSpace=wrap;rounded=0;" parent="WIyWlLk6GJQsqaUBKTNV-1" vertex="1">
          <mxGeometry x="700" y="210" width="290" height="160" as="geometry" />
        </mxCell>
        <mxCell id="7GwHJ8WHLpkf8yxdElzS-2" value="UI Component" style="html=1;dropTarget=0;whiteSpace=wrap;" parent="WIyWlLk6GJQsqaUBKTNV-1" vertex="1">
          <mxGeometry x="450" y="200" width="180" height="90" as="geometry" />
        </mxCell>
        <mxCell id="7GwHJ8WHLpkf8yxdElzS-3" value="" style="shape=module;jettyWidth=8;jettyHeight=4;" parent="7GwHJ8WHLpkf8yxdElzS-2" vertex="1">
          <mxGeometry x="1" width="20" height="20" relative="1" as="geometry">
            <mxPoint x="-27" y="7" as="offset" />
          </mxGeometry>
        </mxCell>
        <mxCell id="7GwHJ8WHLpkf8yxdElzS-4" value="PaymentService" style="html=1;dropTarget=0;whiteSpace=wrap;" parent="WIyWlLk6GJQsqaUBKTNV-1" vertex="1">
          <mxGeometry x="233" y="480" width="180" height="90" as="geometry" />
        </mxCell>
        <mxCell id="7GwHJ8WHLpkf8yxdElzS-5" value="" style="shape=module;jettyWidth=8;jettyHeight=4;" parent="7GwHJ8WHLpkf8yxdElzS-4" vertex="1">
          <mxGeometry x="1" width="20" height="20" relative="1" as="geometry">
            <mxPoint x="-27" y="7" as="offset" />
          </mxGeometry>
        </mxCell>
        <mxCell id="7GwHJ8WHLpkf8yxdElzS-6" value="NotificationService" style="html=1;dropTarget=0;whiteSpace=wrap;" parent="WIyWlLk6GJQsqaUBKTNV-1" vertex="1">
          <mxGeometry x="1120" y="480" width="180" height="90" as="geometry" />
        </mxCell>
        <mxCell id="7GwHJ8WHLpkf8yxdElzS-7" value="" style="shape=module;jettyWidth=8;jettyHeight=4;" parent="7GwHJ8WHLpkf8yxdElzS-6" vertex="1">
          <mxGeometry x="1" width="20" height="20" relative="1" as="geometry">
            <mxPoint x="-27" y="7" as="offset" />
          </mxGeometry>
        </mxCell>
        <mxCell id="7GwHJ8WHLpkf8yxdElzS-8" value="BookingService" style="html=1;dropTarget=0;whiteSpace=wrap;" parent="WIyWlLk6GJQsqaUBKTNV-1" vertex="1">
          <mxGeometry x="460" y="480" width="180" height="90" as="geometry" />
        </mxCell>
        <mxCell id="7GwHJ8WHLpkf8yxdElzS-9" value="" style="shape=module;jettyWidth=8;jettyHeight=4;" parent="7GwHJ8WHLpkf8yxdElzS-8" vertex="1">
          <mxGeometry x="1" width="20" height="20" relative="1" as="geometry">
            <mxPoint x="-27" y="7" as="offset" />
          </mxGeometry>
        </mxCell>
        <mxCell id="7GwHJ8WHLpkf8yxdElzS-10" value="UserManagementService" style="html=1;dropTarget=0;whiteSpace=wrap;" parent="WIyWlLk6GJQsqaUBKTNV-1" vertex="1">
          <mxGeometry x="900" y="480" width="180" height="90" as="geometry" />
        </mxCell>
        <mxCell id="7GwHJ8WHLpkf8yxdElzS-11" value="" style="shape=module;jettyWidth=8;jettyHeight=4;" parent="7GwHJ8WHLpkf8yxdElzS-10" vertex="1">
          <mxGeometry x="1" width="20" height="20" relative="1" as="geometry">
            <mxPoint x="-27" y="7" as="offset" />
          </mxGeometry>
        </mxCell>
        <mxCell id="7GwHJ8WHLpkf8yxdElzS-12" value="HotelService" style="html=1;dropTarget=0;whiteSpace=wrap;" parent="WIyWlLk6GJQsqaUBKTNV-1" vertex="1">
          <mxGeometry x="680" y="480" width="180" height="90" as="geometry" />
        </mxCell>
        <mxCell id="7GwHJ8WHLpkf8yxdElzS-13" value="" style="shape=module;jettyWidth=8;jettyHeight=4;" parent="7GwHJ8WHLpkf8yxdElzS-12" vertex="1">
          <mxGeometry x="1" width="20" height="20" relative="1" as="geometry">
            <mxPoint x="-27" y="7" as="offset" />
          </mxGeometry>
        </mxCell>
        <mxCell id="7GwHJ8WHLpkf8yxdElzS-19" value="" style="rounded=0;orthogonalLoop=1;jettySize=auto;html=1;endArrow=halfCircle;endFill=0;endSize=6;strokeWidth=1;sketch=0;" parent="WIyWlLk6GJQsqaUBKTNV-1" source="7GwHJ8WHLpkf8yxdElzS-2" target="7GwHJ8WHLpkf8yxdElzS-21" edge="1">
          <mxGeometry relative="1" as="geometry">
            <mxPoint x="350" y="365" as="sourcePoint" />
          </mxGeometry>
        </mxCell>
        <mxCell id="7GwHJ8WHLpkf8yxdElzS-20" value="" style="rounded=0;orthogonalLoop=1;jettySize=auto;html=1;endArrow=oval;endFill=0;sketch=0;sourcePerimeterSpacing=0;targetPerimeterSpacing=0;endSize=10;" parent="WIyWlLk6GJQsqaUBKTNV-1" target="7GwHJ8WHLpkf8yxdElzS-21" edge="1">
          <mxGeometry relative="1" as="geometry">
            <mxPoint x="550" y="430" as="sourcePoint" />
          </mxGeometry>
        </mxCell>
        <mxCell id="7GwHJ8WHLpkf8yxdElzS-21" value="" style="ellipse;whiteSpace=wrap;html=1;align=center;aspect=fixed;fillColor=none;strokeColor=none;resizable=0;perimeter=centerPerimeter;rotatable=0;allowArrows=0;points=[];outlineConnect=1;" parent="WIyWlLk6GJQsqaUBKTNV-1" vertex="1">
          <mxGeometry x="540" y="360" width="10" height="10" as="geometry" />
        </mxCell>
        <mxCell id="7GwHJ8WHLpkf8yxdElzS-22" value="" style="rounded=0;whiteSpace=wrap;html=1;" parent="WIyWlLk6GJQsqaUBKTNV-1" vertex="1">
          <mxGeometry x="536.5" y="420" width="27" height="20" as="geometry" />
        </mxCell>
        <mxCell id="7GwHJ8WHLpkf8yxdElzS-25" value="Use" style="endArrow=open;endSize=12;dashed=1;html=1;rounded=0;" parent="WIyWlLk6GJQsqaUBKTNV-1" source="7GwHJ8WHLpkf8yxdElzS-22" target="7GwHJ8WHLpkf8yxdElzS-4" edge="1">
          <mxGeometry width="160" relative="1" as="geometry">
            <mxPoint x="470" y="470" as="sourcePoint" />
            <mxPoint x="630" y="470" as="targetPoint" />
          </mxGeometry>
        </mxCell>
        <mxCell id="7GwHJ8WHLpkf8yxdElzS-26" value="Use" style="endArrow=open;endSize=12;dashed=1;html=1;rounded=0;" parent="WIyWlLk6GJQsqaUBKTNV-1" source="7GwHJ8WHLpkf8yxdElzS-22" target="7GwHJ8WHLpkf8yxdElzS-8" edge="1">
          <mxGeometry width="160" relative="1" as="geometry">
            <mxPoint x="547" y="446" as="sourcePoint" />
            <mxPoint x="423" y="497" as="targetPoint" />
          </mxGeometry>
        </mxCell>
        <mxCell id="7GwHJ8WHLpkf8yxdElzS-28" value="Use" style="endArrow=open;endSize=12;dashed=1;html=1;rounded=0;" parent="WIyWlLk6GJQsqaUBKTNV-1" source="7GwHJ8WHLpkf8yxdElzS-22" target="7GwHJ8WHLpkf8yxdElzS-12" edge="1">
          <mxGeometry width="160" relative="1" as="geometry">
            <mxPoint x="734" y="456" as="sourcePoint" />
            <mxPoint x="610" y="507" as="targetPoint" />
          </mxGeometry>
        </mxCell>
        <mxCell id="7GwHJ8WHLpkf8yxdElzS-29" value="Use" style="endArrow=open;endSize=12;dashed=1;html=1;rounded=0;" parent="WIyWlLk6GJQsqaUBKTNV-1" source="7GwHJ8WHLpkf8yxdElzS-22" target="7GwHJ8WHLpkf8yxdElzS-10" edge="1">
          <mxGeometry width="160" relative="1" as="geometry">
            <mxPoint x="800" y="440" as="sourcePoint" />
            <mxPoint x="916" y="490" as="targetPoint" />
          </mxGeometry>
        </mxCell>
        <mxCell id="7GwHJ8WHLpkf8yxdElzS-30" value="Use" style="endArrow=open;endSize=12;dashed=1;html=1;rounded=0;" parent="WIyWlLk6GJQsqaUBKTNV-1" source="7GwHJ8WHLpkf8yxdElzS-22" target="7GwHJ8WHLpkf8yxdElzS-6" edge="1">
          <mxGeometry width="160" relative="1" as="geometry">
            <mxPoint x="574" y="443" as="sourcePoint" />
            <mxPoint x="910" y="516" as="targetPoint" />
          </mxGeometry>
        </mxCell>
        <mxCell id="7GwHJ8WHLpkf8yxdElzS-33" value="&lt;font style=&quot;font-size: 24px;&quot;&gt;Services&lt;/font&gt;" style="text;html=1;align=center;verticalAlign=middle;whiteSpace=wrap;rounded=0;" parent="WIyWlLk6GJQsqaUBKTNV-1" vertex="1">
          <mxGeometry x="1250" y="440" width="60" height="30" as="geometry" />
        </mxCell>
      </root>
    </mxGraphModel>
  </diagram>
</mxfile>
